<svg width="15" height="26" viewBox="0 0 15 26" fill="none" xmlns="http://www.w3.org/2000/svg">
<path opacity="0.2" d="M12 0H6C4.4087 0 2.88258 0.608728 1.75736 1.69227C0.632141 2.77582 0 4.24542 0 5.77778V11.5556C0 12.3217 0.316071 13.0565 0.87868 13.5983C1.44129 14.1401 2.20435 14.4444 3 14.4444H10.5C10.4976 16.3592 9.70668 18.1949 8.30067 19.5488C6.89466 20.9027 4.98839 21.6644 3 21.6667C2.40326 21.6667 1.83097 21.8949 1.40901 22.3013C0.987053 22.7076 0.75 23.2587 0.75 23.8333C0.75 24.408 0.987053 24.9591 1.40901 25.3654C1.83097 25.7717 2.40326 26 3 26C6.1815 25.9966 9.23167 24.778 11.4813 22.6117C13.731 20.4453 14.9964 17.5081 15 14.4444V2.88889C15 2.12271 14.6839 1.38791 14.1213 0.846136C13.5587 0.304364 12.7956 0 12 0Z" fill="#1DBF73"/>
</svg>
